<?xml version="1.0" encoding="utf-8"?><!-- Uploaded to: SVG Repo, www.svgrepo.com, Generator: SVG Repo Mixer Tools -->
<svg version="1.1" id="designs" xmlns="http://www.w3.org/2000/svg" xmlns:xlink="http://www.w3.org/1999/xlink" 
	 width="800px" height="800px" viewBox="0 0 32 32" xml:space="preserve">
<style type="text/css">
</style>
<path class="sketchy_een" d="M25.697,23.066c0.004-0.4-0.037-0.799-0.062-1.197c-0.025-0.426-0.018-0.853-0.033-1.278
	c-0.016-0.392-0.035-0.783-0.035-1.175c0.002-1.758,0.018-3.515-0.033-5.273c-0.027-0.89-0.016-1.782-0.019-2.672
	c-0.006-0.863,0.016-1.723-0.019-2.584c-0.018-0.381-0.037-0.76-0.064-1.141c-0.019-0.249-0.087-0.466-0.27-0.647
	c-0.008-0.008-0.02-0.011-0.029-0.019c0.06-0.406-0.18-0.834-0.591-0.935c-0.355-0.088-0.709-0.115-1.07-0.115
	c-0.086,0-0.172,0.002-0.259,0.004c-0.546,0.016-1.094,0.049-1.64,0.066c-0.546,0.016-1.092,0.031-1.636,0.052
	c-0.47,0.018-0.938,0.014-1.407,0.013c0.001-0.961,0.007-1.923,0.003-2.884c-0.002-0.49-0.405-0.897-0.895-0.909
	c-0.073-0.103-0.161-0.194-0.271-0.257C17.226,2.033,17.081,2,16.932,2c-0.071,0-0.143,0.007-0.216,0.02
	c-0.378,0.029-0.764,0.007-1.143,0.005c-0.538-0.006-1.074-0.01-1.613-0.018c-0.035-0.001-0.066,0.016-0.1,0.02
	c-0.034-0.004-0.064-0.021-0.099-0.021c-0.478,0-0.884,0.402-0.882,0.882c0.007,1.14,0.042,2.281,0.022,3.423
	c-0.635,0.021-1.272,0.026-1.906,0.026c-0.161,0-0.324,0-0.484,0C9.452,6.341,8.399,6.296,7.342,6.244
	C7.329,6.243,7.316,6.242,7.303,6.242c-0.451,0-0.82,0.422-0.82,0.86c0,0.028,0.013,0.051,0.016,0.079
	c-0.093,0.141-0.16,0.3-0.165,0.479c-0.025,0.968-0.019,1.935-0.025,2.903c-0.006,0.826-0.019,1.655,0.029,2.481
	c0.049,0.822,0.035,1.648,0.05,2.471c0.016,0.861,0.025,1.721,0.047,2.582c0.018,0.816,0.023,1.634,0.051,2.45
	c0.027,0.81,0.06,1.62,0.084,2.431c0.025,0.797,0.012,1.591,0.016,2.388c0.002,0.756-0.027,1.512-0.097,2.263
	c-0.023,0.255-0.025,0.509-0.041,0.762c-0.016,0.225-0.037,0.451-0.054,0.674c-0.037,0.458,0.41,0.841,0.841,0.841
	c0.224,0,0.418-0.091,0.564-0.231c0.742,0.021,1.484,0.045,2.227,0.068c0.375,0.012,0.744,0.052,1.119,0.08
	c0.379,0.029,0.764,0.025,1.144,0.027c1.638,0.01,3.276-0.019,4.914-0.021c0.585,0,1.172,0.002,1.758,0.004
	c0.754,0.002,1.51,0.004,2.266,0c0.602-0.002,1.208-0.01,1.811,0.014c0.297,0.01,0.598,0.002,0.898-0.004
	c0.108-0.002,0.22-0.018,0.331-0.027C24.415,29.923,24.588,30,24.776,30c0.497,0,0.874-0.406,0.89-0.89
	c0.012-0.352-0.006-0.705-0.006-1.057c0-0.416-0.012-0.832-0.01-1.247c0.004-0.828,0.019-1.655,0.029-2.485
	C25.683,23.903,25.693,23.483,25.697,23.066z M15.597,3.805c0.256-0.006,0.515-0.012,0.773-0.019c0.06,0,0.124,0,0.188,0
	c0.053,0,0.107-0.002,0.16-0.003c0.023,0.891,0.063,1.779,0.069,2.671c0.002,0.484-0.002,0.968,0,1.451
	c0.001,0.247-0.004,0.497-0.005,0.746c-0.72,0.044-1.441,0.071-2.162,0.087c-0.008-0.207-0.032-0.414-0.031-0.619
	c0.004-0.54,0.008-1.08,0.016-1.618c0.012-0.897,0.02-1.793,0.027-2.689C14.955,3.811,15.275,3.813,15.597,3.805z M23.084,28.191
	c-0.396,0.01-0.793,0.021-1.189,0.027c-0.82,0.012-1.642,0.008-2.464,0.01c-1.718,0.006-3.435,0.017-5.155,0.006
	c-1.09-0.006-2.184,0.004-3.274-0.068c-0.552-0.037-1.107-0.066-1.661-0.097c-0.406-0.023-0.813-0.047-1.219-0.073
	c0.052-1.112,0.104-2.224,0.096-3.338c-0.006-0.795-0.012-1.587-0.031-2.38c-0.019-0.804-0.045-1.609-0.049-2.413
	c-0.008-1.704-0.029-3.408-0.033-5.114c-0.002-0.4,0.002-0.8-0.008-1.203c-0.008-0.402-0.041-0.804-0.052-1.207
	C8.023,11.49,8.031,10.635,8.05,9.782c0.015-0.603,0.035-1.205,0.055-1.808c0.792,0.013,1.582,0.009,2.375-0.007
	c0.365-0.006,0.731-0.004,1.096,0c0.441,0.003,0.884,0,1.327-0.013c0.001,0.056-0.001,0.111,0,0.167
	c0.014,0.484,0.027,0.973,0.086,1.453c0.027,0.233,0.074,0.422,0.245,0.593c0.004,0.004,0.01,0.006,0.015,0.01
	c0.165,0.228,0.418,0.391,0.713,0.381c1.129-0.039,2.256-0.115,3.385-0.194c0.237-0.018,0.443-0.084,0.616-0.255
	c0.004-0.004,0.006-0.01,0.01-0.015c0.122-0.043,0.235-0.106,0.327-0.198c0.109-0.111,0.185-0.239,0.227-0.389
	c0.035-0.134,0.04-0.268,0.014-0.403c-0.027-0.398-0.01-0.801-0.007-1.198c0-0.004,0-0.008,0-0.012
	c0.443-0.012,0.886-0.028,1.331-0.043c0.55-0.019,1.098-0.01,1.648-0.002c0.529,0.008,1.057,0.027,1.585,0.01
	c0.169-0.006,0.337-0.018,0.506-0.028c0.073,0.908,0.146,1.815,0.161,2.725c0.016,0.894,0.004,1.786,0.01,2.677
	c0.01,1.745,0.062,3.486,0.068,5.23c0.002,0.429,0.004,0.859,0.017,1.286c0.012,0.398,0.039,0.795,0.049,1.191
	c0.012,0.422,0.019,0.841,0.047,1.261c0.027,0.416,0.043,0.828,0.043,1.243c-0.007,1.578-0.051,3.157-0.074,4.737
	c-0.159,0.007-0.318,0.013-0.477,0.01C23.325,28.191,23.205,28.19,23.084,28.191z M20.24,20.483c-0.253-0.655-0.554-1.313-0.938-1.9
	c-0.322-0.493-0.713-0.934-1.101-1.375c0.304-0.304,0.487-0.682,0.653-1.075c0.159-0.379,0.218-0.802,0.264-1.208
	c0.019-0.159,0.019-0.313,0.006-0.472c-0.023-0.235-0.056-0.49-0.136-0.717c-0.272-0.785-0.843-1.523-1.603-1.891
	c-0.352-0.169-0.727-0.247-1.106-0.326c-0.237-0.05-0.474-0.089-0.71-0.089c-0.103,0-0.205,0.007-0.307,0.024
	c-0.059,0.004-0.118,0.014-0.177,0.03c-0.441,0.119-0.89,0.233-1.311,0.408c-0.204,0.084-0.404,0.165-0.593,0.278
	c-0.315,0.185-0.532,0.466-0.727,0.767c-0.297,0.466-0.425,1.016-0.486,1.558c-0.047,0.429-0.004,0.865,0.111,1.279
	c0.215,0.779,0.731,1.442,1.373,1.919c-0.328,0.306-0.65,0.619-0.943,0.955c-0.251,0.286-0.48,0.598-0.684,0.921
	c-0.192,0.299-0.313,0.639-0.425,0.975c-0.103,0.305-0.167,0.628-0.231,0.942c-0.074,0.359-0.128,0.721-0.169,1.086
	c-0.06,0.51-0.11,1.026-0.156,1.54c-0.062,0.115-0.107,0.24-0.107,0.378c0,0.445,0.375,0.828,0.824,0.824
	c0.766-0.008,1.533-0.019,2.3-0.014c0.69,0.004,1.378,0.025,2.065,0.049c0.701,0.023,1.403,0.045,2.104,0.052
	c0.332,0.002,0.666,0,0.999,0.019c0.239,0.016,0.476,0.052,0.715,0.027c0.013-0.001,0.023-0.006,0.035-0.007
	c0.049,0.009,0.094,0.03,0.145,0.03c0.468,0,0.847-0.387,0.851-0.851c0.008-0.645-0.006-1.29-0.07-1.931
	C20.629,21.936,20.514,21.19,20.24,20.483z M13.728,14.629c0.035-0.19,0.083-0.376,0.145-0.559c0.054-0.107,0.115-0.208,0.181-0.308
	c0.016-0.018,0.033-0.035,0.05-0.052c0.074-0.047,0.151-0.088,0.231-0.127c0.399-0.149,0.82-0.245,1.229-0.353
	c0.032-0.008,0.062-0.018,0.092-0.03c0.271,0.054,0.546,0.13,0.805,0.223c0.096,0.05,0.187,0.108,0.275,0.17
	c0.089,0.079,0.168,0.165,0.244,0.255c0.081,0.116,0.153,0.237,0.216,0.364c0.032,0.094,0.058,0.189,0.078,0.286
	c0.009,0.14,0.005,0.278-0.009,0.418c-0.044,0.265-0.109,0.525-0.202,0.776c-0.045,0.093-0.093,0.184-0.149,0.27
	c-0.079,0.086-0.165,0.163-0.255,0.238c-0.143,0.102-0.292,0.19-0.449,0.267c-0.127,0.046-0.254,0.083-0.388,0.109
	c-0.23,0.016-0.455,0.007-0.684-0.018c-0.15-0.027-0.294-0.064-0.438-0.113c-0.094-0.05-0.183-0.106-0.271-0.166
	c-0.119-0.102-0.229-0.21-0.331-0.331c-0.097-0.135-0.185-0.275-0.259-0.424c-0.05-0.138-0.088-0.276-0.117-0.419
	C13.713,14.947,13.715,14.788,13.728,14.629z M15.926,23.824c-0.663-0.041-1.325-0.093-1.99-0.119
	c-0.46-0.017-0.919-0.018-1.378-0.023c0.009-0.107,0.014-0.215,0.026-0.322c0.037-0.317,0.053-0.637,0.088-0.954
	c0.089-0.589,0.218-1.175,0.426-1.734c0.111-0.226,0.249-0.434,0.398-0.637c0.514-0.624,1.142-1.136,1.744-1.67
	c0.027-0.024,0.037-0.058,0.059-0.085c0.097,0.007,0.193,0.019,0.29,0.02c0.315,0,0.637-0.031,0.94-0.111
	c0.046-0.012,0.09-0.033,0.135-0.048c0.139,0.16,0.278,0.321,0.425,0.474c0.148,0.155,0.3,0.303,0.438,0.465
	c0.421,0.572,0.758,1.202,1.041,1.852c0.2,0.492,0.324,1,0.405,1.526c0.057,0.476,0.077,0.954,0.086,1.432
	C18.016,23.906,16.969,23.888,15.926,23.824z"/>
</svg>