<?xml version="1.0" encoding="utf-8"?><!-- Uploaded to: SVG Repo, www.svgrepo.com, Generator: SVG Repo Mixer Tools -->
<svg version="1.1" id="designs" xmlns="http://www.w3.org/2000/svg" xmlns:xlink="http://www.w3.org/1999/xlink" 
	 width="800px" height="800px" viewBox="0 0 32 32" xml:space="preserve">
<style type="text/css">
	.sketchy_een{fill:#111918;}
</style>
<path class="sketchy_een" d="M28.999,25.549c-0.067-1.474-0.133-2.948-0.184-4.421c-0.014-0.385-0.016-0.771-0.035-1.156
	c-0.02-0.406-0.037-0.812-0.041-1.219c-0.01-0.818-0.02-1.637-0.067-2.455c-0.09-1.58-0.19-3.158-0.19-4.739
	c0-0.781-0.004-1.562,0.01-2.343c0.018-0.922,0.071-1.843,0.128-2.763c0.021-0.333-0.214-0.624-0.511-0.746
	c-0.145-0.121-0.326-0.202-0.528-0.209c-0.361-0.014-0.72-0.008-1.081-0.026c-0.345-0.016-0.691-0.024-1.036-0.026
	c-0.765-0.004-1.533,0.012-2.3,0.012c-0.826-0.002-1.652-0.025-2.481-0.018c-0.797,0.008-1.594,0.006-2.39,0.012
	c-1.641,0.012-3.283,0.008-4.924,0.02c-0.869,0.006-1.739,0.004-2.608,0.008C9.988,5.481,9.217,5.497,8.444,5.501
	C7.107,5.505,5.771,5.493,4.435,5.432c-0.01,0-0.021-0.001-0.031-0.001c-0.147,0-0.277,0.059-0.395,0.137
	C3.984,5.567,3.961,5.554,3.936,5.554c-0.481,0-0.824,0.388-0.85,0.85C3.039,7.318,3.032,8.231,3.032,9.147
	c0,0.92-0.008,1.843-0.014,2.763c-0.006,0.852-0.008,1.701-0.016,2.553c-0.006,0.816,0.002,1.633,0.012,2.449
	c0.008,0.689,0.049,1.376,0.065,2.062c0.018,0.685-0.004,1.37-0.002,2.055c0,0.683-0.033,1.362-0.041,2.043
	c-0.01,0.671-0.016,1.342-0.012,2.013c0.003,0.373,0.238,0.696,0.566,0.832c0.104,0.354,0.423,0.625,0.808,0.625
	c1.8-0.008,3.599-0.033,5.399-0.061c1.719-0.025,3.438-0.029,5.157-0.016c0.812,0.006,1.623,0.053,2.433,0.084
	c0.852,0.031,1.707,0.004,2.559,0.002c1.652-0.002,3.303-0.018,4.953-0.01c0.577,0.002,1.154,0.008,1.731,0.014
	c0.542,0.006,1.087,0.041,1.625-0.047c0.201-0.033,0.364-0.174,0.475-0.349C28.899,26.005,29.01,25.789,28.999,25.549z M20.176,15.8
	c-0.096-0.122-0.199-0.254-0.2-0.253c0.081-0.083,0.163-0.165,0.243-0.249c0.602-0.63,1.209-1.258,1.813-1.89
	c0.288-0.302,0.571-0.614,0.856-0.92c0.283-0.302,0.577-0.591,0.867-0.883c0.657-0.661,1.313-1.329,1.968-1.992
	c0.433-0.439,0.832-0.908,1.217-1.389c-0.009,0.331-0.022,0.661-0.033,0.992c-0.026,0.789-0.031,1.58-0.031,2.369
	c0,0.793,0.006,1.584,0.033,2.376c0.027,0.828,0.096,1.654,0.126,2.482c0.029,0.791,0.023,1.584,0.039,2.377
	c0.016,0.789,0.053,1.578,0.069,2.367c0.017,0.775,0.047,1.548,0.079,2.322c-0.187-0.2-0.379-0.395-0.568-0.594
	c-0.544-0.571-1.093-1.138-1.646-1.7c-0.571-0.579-1.128-1.169-1.699-1.75c-0.577-0.589-1.109-1.223-1.645-1.849
	c-0.152-0.178-0.302-0.356-0.452-0.536c-0.296-0.357-0.58-0.725-0.877-1.08C20.319,15.983,20.25,15.894,20.176,15.8z M9.592,7.024
	c0.814,0.004,1.629-0.006,2.443-0.006c0.842,0,1.686,0.01,2.53,0.01c3.262,0,6.523,0.025,9.785,0.055
	c0.475,0.005,0.952,0.003,1.427,0.009c-0.011,0.015-0.022,0.031-0.033,0.046c-0.478,0.612-0.979,1.2-1.521,1.757
	c-0.585,0.604-1.177,1.199-1.772,1.794c-0.606,0.604-1.193,1.23-1.794,1.843c-0.589,0.6-1.176,1.203-1.756,1.811
	c-0.524,0.55-1.066,1.083-1.566,1.654c-0.243,0.277-0.479,0.557-0.74,0.818c-0.265,0.267-0.516,0.544-0.769,0.822
	c-0.007,0.008-0.01,0.018-0.017,0.026c-0.346-0.305-0.693-0.609-1.021-0.936c-0.528-0.526-1.054-1.054-1.59-1.574
	c-0.109-0.106-2.559-2.454-3.483-3.548c-0.355-0.42-0.689-0.857-1.027-1.293c0.02,0.026,0.04,0.052,0.059,0.078
	C8.212,9.694,7.669,9.008,7.101,8.337C6.746,7.916,6.397,7.489,6.047,7.062c0.533-0.001,1.066-0.01,1.6-0.019
	C8.295,7.034,8.942,7.022,9.592,7.024z M5.178,23.539c-0.116,0.161-0.231,0.325-0.348,0.487c0.002-0.426,0.003-0.852,0.006-1.278
	c0.004-0.402,0.031-0.803,0.031-1.205c0-0.389,0-0.777-0.006-1.166c-0.01-0.816-0.016-1.633-0.067-2.447
	c-0.051-0.832-0.071-1.668-0.063-2.504c0.006-0.693,0-1.389-0.01-2.084c-0.008-0.75-0.014-1.497-0.02-2.247
	c-0.006-0.75-0.012-1.499-0.008-2.249c0.002-0.284,0.022-0.567,0.031-0.85C5.129,8.472,5.53,8.95,5.942,9.418
	c0.542,0.614,1.06,1.246,1.562,1.894c-0.041-0.053-0.082-0.106-0.122-0.159c0.235,0.304,0.467,0.612,0.703,0.917
	c-0.041-0.053-0.082-0.106-0.124-0.159c0.04,0.052,0.079,0.103,0.119,0.154c0.287,0.373,0.577,0.74,0.884,1.098
	c0.277,0.32,0.569,0.624,0.86,0.932c0.428,0.453,0.88,0.882,1.327,1.315c-0.891,1.17-1.772,2.346-2.632,3.54
	c-0.463,0.644-0.905,1.303-1.372,1.945c-0.228,0.314-0.465,0.62-0.691,0.934c-0.23,0.322-0.46,0.642-0.699,0.957
	C5.56,23.034,5.362,23.28,5.178,23.539z M24.554,24.853c-0.394-0.002-0.789-0.002-1.181,0c-0.809,0.008-1.617,0.004-2.426,0.002
	c-0.859,0-1.719,0.004-2.579-0.004c-1.534-0.015-3.065-0.056-4.598-0.056c-0.126,0-0.252,0-0.378,0.001
	c-0.867,0.004-1.733,0.02-2.6,0.035c-0.836,0.014-1.674,0.039-2.51,0.037c-0.68-0.001-1.36-0.011-2.04-0.02
	c0.118-0.18,0.234-0.361,0.353-0.539c0.194-0.292,0.408-0.571,0.616-0.856c0.43-0.591,0.848-1.187,1.289-1.77
	c0.438-0.579,0.834-1.191,1.258-1.78c0.435-0.609,0.879-1.213,1.331-1.811c0.402-0.514,0.808-1.023,1.214-1.533
	c0.286,0.284,0.574,0.566,0.854,0.856c0.493,0.514,1.013,0.995,1.548,1.466c0.141,0.126,0.287,0.251,0.438,0.367
	c0.179,0.139,0.338,0.239,0.575,0.239c0.216,0,0.426-0.086,0.577-0.239c0.059-0.059,0.098-0.132,0.135-0.205
	c0.195-0.005,0.435-0.082,0.562-0.237c0.506-0.616,1.066-1.187,1.59-1.788c0.093-0.107,0.193-0.206,0.288-0.311
	c0.529,0.668,1.091,1.311,1.656,1.95c0.544,0.614,1.089,1.226,1.65,1.825c1.091,1.17,2.202,2.322,3.311,3.476
	c0.281,0.291,0.553,0.59,0.827,0.887c-0.16,0.002-0.321,0.004-0.482,0.006C25.405,24.857,24.979,24.855,24.554,24.853z
	 M8.071,12.053c0.003,0.004,0.006,0.007,0.009,0.011c0.01,0.013,0.02,0.026,0.029,0.038C8.097,12.086,8.084,12.07,8.071,12.053z"/>
</svg>